#N canvas 706 76 450 323 10;
#X obj 93 160 *;
#X obj 93 50 inlet;
#X obj 93 220 outlet;
#X obj 185 55 loadbang;
#X obj 93 185 / 1000;
#X obj 185 102 samplerate~;
#X connect 0 0 4 0;
#X connect 1 0 0 0;
#X connect 3 0 5 0;
#X connect 4 0 2 0;
#X connect 5 0 0 1;
