#N canvas 415 23 450 300 10;
#X obj 100 135 /;
#X obj 100 161 *;
#X obj 100 186 * 1000;
#X obj 100 51 inlet;
#X obj 100 221 outlet;
#X obj 100 77 t b f;
#X obj 192 56 loadbang;
#X obj 100 106 f 1;
#X obj 192 84 samplerate~;
#X connect 0 0 1 0;
#X connect 1 0 2 0;
#X connect 2 0 4 0;
#X connect 3 0 5 0;
#X connect 5 0 7 0;
#X connect 5 1 1 1;
#X connect 6 0 8 0;
#X connect 7 0 0 0;
#X connect 8 0 0 1;
