#N canvas 642 150 450 300 10;
#X msg 108 72 1;
#X msg 153 71 0.5;
#X obj 108 103 sig~;
#X obj 180 240 snapshot~;
#X floatatom 180 265 0 0 0 0 - - -;
#X obj 180 190 loadbang;
#X obj 180 214 metro 200;
#X obj 334 85 tgl 15 0 empty empty Active\ filter 17 7 0 10 -262144
-1 -1 1 1;
#X obj 31 265 print trigger;
#X obj 108 134 expr~ if ($v1 == 1 && $i2 == 1 \, 10 \, $v1);
#X obj 67 292 print rest;
#X obj 34 219 threshold~ 10 100;
#X connect 0 0 2 0;
#X connect 1 0 2 0;
#X connect 2 0 9 0;
#X connect 3 0 4 0;
#X connect 5 0 6 0;
#X connect 6 0 3 0;
#X connect 7 0 9 1;
#X connect 9 0 3 0;
#X connect 9 0 11 0;
#X connect 11 0 8 0;
#X connect 11 1 10 0;
