#N canvas 381 358 820 688 12;
#X obj 405 43 inlet;
#X obj 662 79 text define;
#X obj 662 197 text get -s text t;
#X obj 662 34 bng 15 250 50 0 empty empty empty 17 7 0 10 -262144 -1
-1;
#X obj 662 114 t b p;
#X msg 662 156 0;
#X obj 662 233 t s;
#X obj 53 36 inlet~;
#X obj 506 276 symbol;
#X obj 405 110 pack s s;
#X obj 405 78 route path name;
#X msg 400 267 start;
#X msg 199 154 stop;
#X obj 141 35 inlet;
#X obj 141 88 route start stop;
#X obj 465 231 print;
#X obj 53 347 writesf~ 2;
#X msg 405 191 open /tmp/yuhei.aif;
#X msg 405 144 set open \$1/\$2;
#X obj 405 226 t b a;
#X connect 0 0 10 0;
#X connect 1 0 4 0;
#X connect 2 0 6 0;
#X connect 3 0 1 0;
#X connect 4 0 5 0;
#X connect 4 1 2 3;
#X connect 5 0 2 0;
#X connect 6 0 8 1;
#X connect 7 0 16 0;
#X connect 7 0 16 1;
#X connect 9 0 18 0;
#X connect 10 0 9 0;
#X connect 10 1 9 1;
#X connect 11 0 16 0;
#X connect 12 0 16 0;
#X connect 13 0 14 0;
#X connect 14 0 17 0;
#X connect 14 1 12 0;
#X connect 17 0 19 0;
#X connect 18 0 17 0;
#X connect 19 0 11 0;
#X connect 19 1 16 0;
