#N canvas 27 23 1092 702 10;
#X msg 11 42 bang;
#N canvas 0 22 450 300 (subpatch) 0;
#X array sampleArray 88200 float 0 black black;
#X coords 0 1 88199 -1 160 100 1;
#X restore 404 34 graph;
#X obj 546 543 line~;
#X text 361 418 time (ms) = 1/size * ((size - start) - (size- end))
;
#X obj 55 479 f;
#X obj 17 180 bng 15 250 50 0 empty empty empty 17 7 0 10 -262144 -1
-1;
#X obj 240 245 * -1;
#X obj 546 516 r line;
#X obj 23 597 s line;
#X obj 605 542 print;
#X obj 113 362 conv_time_ms 44100;
#X obj 86 204 t f f;
#X obj 113 337 -;
#X obj 113 310 f;
#X obj 113 283 t b f;
#X obj 240 299 t b f;
#X obj 240 202 t f f;
#X obj 84 477 f;
#X obj 23 540 pack f f f;
#X obj 17 208 t b b b;
#X msg 23 567 \$1 \, \$2 \$3;
#X obj 407 147 loadbang;
#X obj 407 212 conv_ms_time 44100;
#X obj 407 179 f \$1;
#X obj 13 141 tabwrite~ sampleArray;
#X msg 446 274 resize \$1;
#X obj 446 302 s sampleArray;
#X obj 59 11 inlet~;
#X obj 11 11 inlet;
#X obj 546 691 outlet~;
#X obj 129 12 inlet;
#X obj 176 17 inlet;
#X obj 292 14 inlet;
#X obj 176 60 conv_ms_time 44100;
#X obj 294 61 conv_ms_time 44100;
#X obj 240 272 +;
#X obj 407 245 t f f f;
#X obj 113 257 +;
#X obj 546 579 tabread~ sampleArray;
#X obj 113 230 * -1;
#X obj 672 34 notein;
#X obj 800 68 select 1;
#X obj 751 178 f;
#X obj 766 144 spigot;
#X obj 800 100 f 1;
#X obj 845 100 f 0;
#X obj 672 102 select 41;
#X obj 751 232 s play;
#X obj 39 179 r play;
#X obj 845 1 loadbang;
#X obj 845 30 f \$2;
#X obj 809 29 f \$3;
#X obj 23 478 f 0;
#X obj 546 658 *~ 1;
#X obj 751 207 t b f;
#X obj 802 231 s vel;
#X obj 636 605 r vel;
#X obj 636 628 / 127;
#X connect 0 0 24 0;
#X connect 2 0 38 0;
#X connect 4 0 18 2;
#X connect 5 0 19 0;
#X connect 6 0 35 0;
#X connect 7 0 2 0;
#X connect 7 0 9 0;
#X connect 10 0 4 1;
#X connect 11 0 52 1;
#X connect 11 1 39 0;
#X connect 12 0 10 0;
#X connect 13 0 12 0;
#X connect 14 0 13 0;
#X connect 14 1 13 1;
#X connect 15 0 13 0;
#X connect 15 1 12 1;
#X connect 16 0 17 1;
#X connect 16 1 6 0;
#X connect 17 0 18 1;
#X connect 18 0 20 0;
#X connect 19 0 52 0;
#X connect 19 1 4 0;
#X connect 19 2 17 0;
#X connect 20 0 8 0;
#X connect 21 0 23 0;
#X connect 22 0 36 0;
#X connect 23 0 22 0;
#X connect 23 0 4 1;
#X connect 25 0 26 0;
#X connect 27 0 24 0;
#X connect 28 0 0 0;
#X connect 30 0 5 0;
#X connect 31 0 33 0;
#X connect 32 0 34 0;
#X connect 33 0 11 0;
#X connect 34 0 16 0;
#X connect 35 0 15 0;
#X connect 36 0 35 1;
#X connect 36 1 37 1;
#X connect 36 1 17 1;
#X connect 36 2 25 0;
#X connect 37 0 14 0;
#X connect 38 0 53 0;
#X connect 39 0 37 0;
#X connect 40 0 46 0;
#X connect 40 1 43 0;
#X connect 40 2 41 0;
#X connect 41 0 44 0;
#X connect 41 1 45 0;
#X connect 42 0 54 0;
#X connect 43 0 42 1;
#X connect 44 0 43 1;
#X connect 45 0 43 1;
#X connect 46 0 42 0;
#X connect 48 0 19 0;
#X connect 49 0 50 0;
#X connect 49 0 51 0;
#X connect 50 0 41 1;
#X connect 51 0 46 1;
#X connect 52 0 18 0;
#X connect 53 0 29 0;
#X connect 54 0 47 0;
#X connect 54 1 55 0;
#X connect 56 0 57 0;
#X connect 57 0 53 1;
