#N canvas 52 23 1038 689 10;
#X msg 11 42 bang;
#N canvas 0 22 450 300 (subpatch) 0;
#X array \$0-sampleArray 88200 float 0 black black;
#X coords 0 1 88199 -1 160 100 1;
#X restore 337 488 graph;
#X obj 638 469 line~;
#X obj 55 479 f;
#X obj 17 214 bng 15 250 50 0 empty empty empty 17 7 0 10 -262144 -1
-1;
#X obj 240 245 * -1;
#X obj 70 246 t f f;
#X obj 97 379 -;
#X obj 97 352 f;
#X obj 97 325 t b f;
#X obj 240 299 t b f;
#X obj 240 202 t f f;
#X obj 84 477 f;
#X obj 23 540 pack f f f;
#X obj 17 246 t b b b;
#X msg 23 567 \$1 \, \$2 \$3;
#X obj 333 201 loadbang;
#X obj 333 233 f \$1;
#X msg 372 328 resize \$1;
#X obj 59 11 inlet~;
#X obj 11 11 inlet;
#X obj 776 612 outlet~;
#X obj 109 12 inlet;
#X obj 184 13 inlet;
#X obj 292 14 inlet;
#X obj 240 272 +;
#X obj 333 299 t f f f;
#X obj 97 299 +;
#X obj 97 272 * -1;
#X obj 741 81 notein;
#X obj 839 115 select 1;
#X obj 790 225 f;
#X obj 806 191 spigot;
#X obj 741 149 select 41;
#X obj 884 48 loadbang;
#X obj 884 77 f \$2;
#X obj 848 76 f \$3;
#X obj 23 478 f 0;
#X obj 836 386 / 127;
#X obj 791 352 select 0;
#X obj 791 445 f;
#X msg 884 146 0;
#X msg 839 146 1;
#X obj 776 579 *~;
#X obj 791 504 line~;
#X obj 836 414 t f b f;
#X msg 791 472 \$1 \, 0 200;
#X obj 670 220 f 100;
#X obj 13 141 tabwrite~ \$0-sampleArray;
#X obj 638 504 tabread~ \$0-sampleArray;
#X obj 97 404 conv_time_ms;
#X obj 333 266 conv_ms_time;
#X obj 294 61 conv_ms_time;
#X obj 184 44 conv_ms_time;
#X obj 638 440 r \$0-line;
#X obj 23 597 s \$0-line;
#X obj 670 189 r \$0-play;
#X obj 109 43 s \$0-play;
#X obj 855 440 s \$0-trigger;
#X obj 17 182 r \$0-trigger;
#X obj 791 268 s \$0-vel;
#X obj 791 322 r \$0-vel;
#X obj 372 356 s \$0-sampleArray;
#X connect 0 0 48 0;
#X connect 2 0 49 0;
#X connect 3 0 13 2;
#X connect 4 0 14 0;
#X connect 5 0 25 0;
#X connect 6 0 37 1;
#X connect 6 1 28 0;
#X connect 7 0 50 0;
#X connect 8 0 7 0;
#X connect 9 0 8 0;
#X connect 9 1 8 1;
#X connect 10 0 8 0;
#X connect 10 1 7 1;
#X connect 11 0 12 1;
#X connect 11 1 5 0;
#X connect 12 0 13 1;
#X connect 13 0 15 0;
#X connect 14 0 37 0;
#X connect 14 1 3 0;
#X connect 14 2 12 0;
#X connect 15 0 55 0;
#X connect 16 0 17 0;
#X connect 17 0 3 1;
#X connect 17 0 51 0;
#X connect 18 0 62 0;
#X connect 19 0 48 0;
#X connect 20 0 0 0;
#X connect 22 0 57 0;
#X connect 23 0 53 0;
#X connect 24 0 52 0;
#X connect 25 0 10 0;
#X connect 26 0 25 1;
#X connect 26 1 27 1;
#X connect 26 1 12 1;
#X connect 26 2 18 0;
#X connect 27 0 9 0;
#X connect 28 0 27 0;
#X connect 29 0 33 0;
#X connect 29 1 32 0;
#X connect 29 2 30 0;
#X connect 30 0 42 0;
#X connect 30 1 41 0;
#X connect 31 0 60 0;
#X connect 32 0 31 1;
#X connect 33 0 31 0;
#X connect 34 0 35 0;
#X connect 34 0 36 0;
#X connect 35 0 30 1;
#X connect 36 0 33 1;
#X connect 37 0 13 0;
#X connect 38 0 45 0;
#X connect 39 0 40 0;
#X connect 39 1 38 0;
#X connect 40 0 46 0;
#X connect 41 0 32 1;
#X connect 42 0 32 1;
#X connect 43 0 21 0;
#X connect 44 0 43 1;
#X connect 45 0 40 1;
#X connect 45 1 58 0;
#X connect 45 2 44 0;
#X connect 46 0 44 0;
#X connect 47 0 60 0;
#X connect 49 0 43 0;
#X connect 50 0 3 1;
#X connect 51 0 26 0;
#X connect 52 0 11 0;
#X connect 53 0 6 0;
#X connect 54 0 2 0;
#X connect 56 0 47 0;
#X connect 59 0 4 0;
#X connect 61 0 39 0;
